<svg xmlns="http://www.w3.org/2000/svg" viewBox="0 0 100 100"><defs><style>.a-email{fill:#5b0032;}.b-email{fill:#fff;}</style></defs><circle class="a-email" cx="50" cy="50" r="70"/><path class="b-email" d="M72.6357,48.0814q-.2672,7.0048-3.4878,11.1649A10.3135,10.3135,0,0,1,60.56,63.4056a7.8,7.8,0,0,1-3.8936-.9517,6.6412,6.6412,0,0,1-2.6289-2.6983,8.3471,8.3471,0,0,1-7.0592,3.5427,7.0932,7.0932,0,0,1-4.5089-1.5161,8.6673,8.6673,0,0,1-2.8305-4.3073,15.5609,15.5609,0,0,1-.55-6.3339,19.6988,19.6988,0,0,1,4.32-10.7892,10.9531,10.9531,0,0,1,8.6146-4.0795,12.3012,12.3012,0,0,1,6.79,1.825h0a3.4307,3.4307,0,0,1,1.515,3.1527L59.1351,54.98q-.4555,3.7313,2.5765,3.73,2.282,0,3.8255-2.9117A17.1654,17.1654,0,0,0,67.2417,48.35q.4557-8.9637-3.7181-13.8488-4.1712-4.884-12.2254-4.8846a16.21,16.21,0,0,0-9.11,2.6171A17.9945,17.9945,0,0,0,35.88,39.6409a27.8408,27.8408,0,0,0-2.6165,10.91q-.43,9.393,3.7575,14.3725,4.1848,4.9783,12.5592,4.9789a23.6078,23.6078,0,0,0,4.7786-.5236q.9678-.2013,1.7979-.428a2.3371,2.3371,0,0,1,2.8541,1.6666q.0129.0495.0238.1l.0121.0541a2.422,2.422,0,0,1-1.463,2.7918,18.4428,18.4428,0,0,1-2.5415.78A24.0817,24.0817,0,0,1,49.4728,75,25.2294,25.2294,0,0,1,37.088,72.1957,17.308,17.308,0,0,1,29.56,63.89a29.9012,29.9012,0,0,1-2.2008-13.34,30.9086,30.9086,0,0,1,3.4216-13.2714,22.5906,22.5906,0,0,1,8.48-9.0715A23.2634,23.2634,0,0,1,51.4055,25a23.1675,23.1675,0,0,1,11.6756,2.8043A17.7086,17.7086,0,0,1,70.4624,35.87,25.8087,25.8087,0,0,1,72.6357,48.0814ZM45.7432,51.1361c-.1939,2.0781-.42,5.3759,1.693,6.5986,1.68.9722,3.3826.15,4.4356-1.3064,1.247-1.7242,1.2073-3.9026,1.5527-5.9064q.3094-1.7953.58-3.597a18.71,18.71,0,0,0,.5041-3.6047c-.1085-1.8-1.8834-2.3407-3.3879-1.8143-2.6827.9387-4.1137,3.4085-4.77,6.0391A25.1624,25.1624,0,0,0,45.7432,51.1361Z" transform="translate(0.0044 0.0042)"/></svg>
