<svg xmlns="http://www.w3.org/2000/svg" viewBox="0 0 100 100">
    <defs>
        <style>.a-instagram{fill:url(#a-instagram);}.b-instagram{fill:#fff;}</style>
        <linearGradient id="a-instagram" x1="21.4817" y1="93.6869" x2="81.0505" y2="2.4341"
                        gradientUnits="userSpaceOnUse">
            <stop offset="0" stop-color="#feda77"/>
            <stop offset="0.186" stop-color="#f58529"/>
            <stop offset="0.4664" stop-color="#dd2a7b"/>
            <stop offset="0.7453" stop-color="#8134af"/>
            <stop offset="0.9485" stop-color="#515bd4"/>
        </linearGradient>
    </defs>
    <circle class="a-instagram" cx="50" cy="50" r="70"/>
    <path class="b-instagram"
          d="M50,29.5045c6.6753,0,7.466.0255,10.1021.1457a13.834,13.834,0,0,1,4.6422.8609,8.2792,8.2792,0,0,1,4.7446,4.7446,13.8334,13.8334,0,0,1,.8609,4.6421c.12,2.6362.1457,3.4269.1457,10.1022S70.47,57.466,70.35,60.1021a13.834,13.834,0,0,1-.8609,4.6422,8.2792,8.2792,0,0,1-4.7446,4.7446,13.834,13.834,0,0,1-4.6422.8609c-2.6358.12-3.4263.1457-10.1021.1457S42.5337,70.47,39.8979,70.35a13.8315,13.8315,0,0,1-4.6422-.8609,8.2792,8.2792,0,0,1-4.7446-4.7446,13.8359,13.8359,0,0,1-.8609-4.6421c-.12-2.6362-.1457-3.4269-.1457-10.1022s.0255-7.466.1457-10.1021a13.8315,13.8315,0,0,1,.8609-4.6422,8.2792,8.2792,0,0,1,4.7446-4.7446,13.831,13.831,0,0,1,4.6421-.8609c2.6362-.12,3.4269-.1457,10.1022-.1457M50,25c-6.79,0-7.641.0288-10.3075.15a18.35,18.35,0,0,0-6.0685,1.1621,12.7828,12.7828,0,0,0-7.3115,7.3115A18.3489,18.3489,0,0,0,25.15,39.6925C25.0288,42.359,25,43.21,25,50s.0288,7.641.15,10.3075a18.35,18.35,0,0,0,1.1621,6.0685,12.7828,12.7828,0,0,0,7.3115,7.3115A18.348,18.348,0,0,0,39.6925,74.85C42.359,74.9717,43.21,75,50,75s7.641-.0287,10.3075-.15a18.3478,18.3478,0,0,0,6.0685-1.1621,12.7828,12.7828,0,0,0,7.3115-7.3115A18.348,18.348,0,0,0,74.85,60.3075C74.9716,57.641,75,56.79,75,50s-.0288-7.641-.15-10.3075a18.3478,18.3478,0,0,0-1.1621-6.0685,12.7828,12.7828,0,0,0-7.3115-7.3115A18.3506,18.3506,0,0,0,60.3075,25.15C57.641,25.0288,56.79,25,50,25Z"/>
    <path class="b-instagram"
          d="M50,37.1622A12.8378,12.8378,0,1,0,62.8378,50h0A12.8378,12.8378,0,0,0,50,37.1622Zm0,21.1711A8.3333,8.3333,0,1,1,58.3333,50,8.3332,8.3332,0,0,1,50,58.3333Z"/>
    <circle class="b-instagram" cx="63.3451" cy="36.6549" r="3"/>
</svg>
