<svg xmlns="http://www.w3.org/2000/svg" viewBox="0 0 100 100"><defs><style>.a-phone{fill:#65c400;}.b-phone{fill:#fff;}</style></defs><circle class="a-phone" cx="51.4999" cy="51.5" r="70" transform="translate(-7.0084 4.6729) rotate(-6.5119)"/><path class="b-phone" d="M71.8114,76.5A45.3069,45.3069,0,0,1,26.5,31.1882a2.3426,2.3426,0,0,1,1.8166-2.2848L38.4728,26.56a2.3707,2.3707,0,0,1,2.6949,1.3672L45.8551,38.864a2.3371,2.3371,0,0,1-.6679,2.729l-5.0514,4.1346a1.4151,1.4151,0,0,0-.3774,1.7274A36.23,36.23,0,0,0,55.5546,63.2509a1.4141,1.4141,0,0,0,1.727-.3771l4.13-5.0456a2.3358,2.3358,0,0,1,2.7343-.6736L75.0828,61.842A2.357,2.357,0,0,1,76.44,64.5275L74.0963,74.6834A2.3413,2.3413,0,0,1,71.8114,76.5Z" transform="translate(-1.5 -1.5)"/></svg>
