<svg xmlns="http://www.w3.org/2000/svg" viewBox="0 0 100 100"><defs><style>.a-sms{fill:#f48b00;}.b-sms{fill:#fff;}</style></defs><circle class="a-sms" cx="51.4999" cy="51.5" r="70" transform="translate(-7.0084 4.6729) rotate(-6.5119)"/><path class="b-sms" d="M51.5,28.2744c-15.6393,0-28.3174,10.2325-28.3174,22.8549,0,6.7322,3.608,12.7832,9.3468,16.9657A4.6005,4.6005,0,0,1,34.013,69.84c1.1656,2.4848,1.8866,6.4357-2.7787,9.5905a.69.69,0,0,0,.3552,1.26c7.354.4609,13.5416-3.646,16.3216-5.8712a3.87,3.87,0,0,1,2.545-.8518q.5194.017,1.0439.0174c15.6393,0,28.3174-10.2325,28.3174-22.855S67.1393,28.2744,51.5,28.2744Z" transform="translate(-1.5 -1.5)"/><path class="a-sms" d="M36.498,51.5h0A2.7323,2.7323,0,0,1,39.23,48.7677h0A2.7323,2.7323,0,0,1,41.9626,51.5h0A2.7323,2.7323,0,0,1,39.23,54.2323h0A2.7323,2.7323,0,0,1,36.498,51.5Z" transform="translate(-1.5 -1.5)"/><path class="a-sms" d="M48.7681,51.5h0A2.7322,2.7322,0,0,1,51.5,48.7677h0A2.7323,2.7323,0,0,1,54.2326,51.5h0A2.7323,2.7323,0,0,1,51.5,54.2323h0A2.7322,2.7322,0,0,1,48.7681,51.5Z" transform="translate(-1.5 -1.5)"/><path class="a-sms" d="M61.0374,51.5h0A2.7323,2.7323,0,0,1,63.77,48.7677h0A2.7323,2.7323,0,0,1,66.502,51.5h0A2.7323,2.7323,0,0,1,63.77,54.2323h0A2.7323,2.7323,0,0,1,61.0374,51.5Z" transform="translate(-1.5 -1.5)"/></svg>
