<svg xmlns="http://www.w3.org/2000/svg" viewBox="0 0 100 100"><defs><style>.a-whatsapp{fill:#25d366;}.b-whatsapp{fill:#fff;fill-rule:evenodd;}</style></defs><circle class="a-whatsapp" cx="50" cy="50" r="70"/><path class="b-whatsapp" d="M69.3509,33.7836A24.9013,24.9013,0,0,0,30.1676,63.8222L26.6357,76.7228l13.1976-3.4619a24.8723,24.8723,0,0,0,11.8969,3.03h.01a24.9062,24.9062,0,0,0,17.61-42.5075ZM51.74,72.0866h-.0085A20.66,20.66,0,0,1,41.2,69.2023l-.7556-.4484-7.8315,2.0544,2.09-7.6357-.492-.783A20.6919,20.6919,0,1,1,51.74,72.0866ZM63.09,56.5893c-.622-.3113-3.68-1.816-4.2506-2.0238s-.9848-.3112-1.4.3113-1.6067,2.024-1.97,2.4391-.7257.4672-1.3477.1557a16.991,16.991,0,0,1-5.0024-3.0875A18.75,18.75,0,0,1,45.66,50.0748c-.3628-.6227-.0387-.9593.2727-1.27.28-.2787.6222-.7266.9331-1.09a4.2434,4.2434,0,0,0,.6221-1.0377,1.1454,1.1454,0,0,0-.0519-1.09c-.1555-.3113-1.4-3.3733-1.9179-4.6189-.505-1.2128-1.0177-1.0485-1.4-1.0678-.3624-.018-.7776-.0219-1.1922-.0219a2.2855,2.2855,0,0,0-1.6588.7784A6.9769,6.9769,0,0,0,39.09,45.8472c0,3.0619,2.2289,6.02,2.54,6.435s4.3863,6.6982,10.6264,9.3927a35.7188,35.7188,0,0,0,3.5462,1.31,8.523,8.523,0,0,0,3.9181.2465c1.1952-.1785,3.68-1.5047,4.1988-2.9577a5.2033,5.2033,0,0,0,.3627-2.9581C64.1271,57.0564,63.7124,56.9008,63.09,56.5893Z" transform="translate(-1.5 -1.5)"/></svg>
